<svg width="15" height="14" viewBox="0 0 15 14" fill="none" xmlns="http://www.w3.org/2000/svg">
<path d="M2.9063 5.5V5C2.9063 3.80653 3.39027 2.66193 4.25176 1.81802C5.11325 0.974106 6.28167 0.5 7.5 0.5C8.71833 0.5 9.88675 0.974106 10.7482 1.81802C11.6097 2.66193 12.0937 3.80653 12.0937 5V5.5M13.9924 6.62C14.0099 6.48042 13.9971 6.33881 13.9549 6.2044C13.9126 6.07 13.842 5.94583 13.7474 5.84C13.6518 5.73333 13.534 5.64784 13.402 5.58922C13.27 5.53059 13.1268 5.50018 12.9818 5.5H7.5H2.01818C1.87324 5.50018 1.73 5.53059 1.59799 5.58922C1.46598 5.64784 1.34822 5.73333 1.25256 5.84C1.15804 5.94583 1.08736 6.07 1.04514 6.2044C1.00293 6.33881 0.990121 6.48042 1.00756 6.62L1.77318 12.62C1.80327 12.8639 1.92397 13.0884 2.11225 13.2507C2.30053 13.413 2.54321 13.5018 2.79401 13.5H12.2264C12.4772 13.5018 12.7199 13.413 12.9082 13.2507C13.0964 13.0884 13.2171 12.8639 13.2472 12.62L13.9924 6.62Z" stroke="black" stroke-linecap="round" stroke-linejoin="round"/>
</svg>
