<svg width="12" height="14" viewBox="0 0 12 14" fill="none" xmlns="http://www.w3.org/2000/svg">
<path fill-rule="evenodd" clip-rule="evenodd" d="M6 3.41249e-06C5.04192 -0.00123137 4.11566 0.332671 3.39187 0.94019C2.66808 1.54771 2.19554 2.38791 2.0613 3.306C1.92705 4.22408 2.14016 5.15819 2.66136 5.93621C3.18256 6.71424 3.97672 7.28376 4.89753 7.53985C3.58904 7.69364 2.46685 8.14121 1.62082 8.94833C0.544657 9.97394 0 11.5023 0 13.4962C0 13.6298 0.0548432 13.758 0.152465 13.8524C0.250087 13.9469 0.38249 14 0.520548 14C0.658606 14 0.791009 13.9469 0.888631 13.8524C0.986253 13.758 1.0411 13.6298 1.0411 13.4962C1.0411 11.672 1.53753 10.4417 2.35178 9.6653C3.16712 8.88788 4.38575 8.48485 6 8.48485C7.61425 8.48485 8.83288 8.88788 9.64931 9.6653C10.4625 10.4427 10.9589 11.672 10.9589 13.4962C10.9589 13.6298 11.0137 13.758 11.1114 13.8524C11.209 13.9469 11.3414 14 11.4795 14C11.6175 14 11.7499 13.9469 11.8475 13.8524C11.9452 13.758 12 13.6298 12 13.4962C12 11.5023 11.4553 9.975 10.3781 8.94833C9.53425 8.14227 8.41096 7.69364 7.10247 7.53985C8.0202 7.28088 8.81077 6.71049 9.32925 5.93321C9.84773 5.15594 10.0594 4.22386 9.92545 3.30781C9.79151 2.39177 9.32093 1.55312 8.59996 0.945596C7.879 0.33807 6.95595 0.00236169 6 3.41249e-06ZM3.06849 3.8447C3.06849 3.09225 3.37735 2.37062 3.92711 1.83855C4.47688 1.30649 5.22252 1.00758 6 1.00758C6.77748 1.00758 7.52312 1.30649 8.07289 1.83855C8.62265 2.37062 8.93151 3.09225 8.93151 3.8447C8.93151 4.59715 8.62265 5.31878 8.07289 5.85085C7.52312 6.38291 6.77748 6.68182 6 6.68182C5.22252 6.68182 4.47688 6.38291 3.92711 5.85085C3.37735 5.31878 3.06849 4.59715 3.06849 3.8447Z" fill="black"/>
</svg>
