<svg width="15" height="12" viewBox="0 0 15 12" fill="none" xmlns="http://www.w3.org/2000/svg">
<path d="M14.7 1.425C14.175 1.65 13.575 1.8 12.975 1.875C13.575 1.5 14.1 0.900002 14.325 0.225002C13.725 0.600002 13.125 0.825002 12.375 0.975002C11.85 0.375002 11.025 0 10.2 0C8.54999 0 7.19999 1.35 7.19999 3C7.19999 3.225 7.2 3.45 7.275 3.675C4.8 3.525 2.55 2.325 1.05 0.524998C0.824995 0.974998 0.674995 1.5 0.674995 2.025C0.674995 3.075 1.2 3.975 2.025 4.5C1.5 4.5 1.05 4.35 0.674995 4.125C0.674995 5.55 1.72499 6.825 3.07499 7.05C2.84999 7.125 2.55 7.125 2.25 7.125C2.025 7.125 1.875 7.125 1.65 7.05C2.025 8.25 3.15 9.15 4.5 9.15C3.45 9.975 2.175 10.425 0.75 10.425C0.525 10.425 0.3 10.425 0 10.35C1.35 11.175 2.925 11.7 4.65 11.7C10.2 11.7 13.2 7.125 13.2 3.15V2.775C13.8 2.55 14.325 2.025 14.7 1.425Z" fill="#111111"/>
</svg>
