<svg width="17" height="12" viewBox="0 0 17 12" fill="none" xmlns="http://www.w3.org/2000/svg">
<path fill-rule="evenodd" clip-rule="evenodd" d="M1.69687 10.9176C1.40267 10.8306 1.13424 10.6757 0.914218 10.4661C0.694199 10.2566 0.529052 9.99839 0.432711 9.71342C-0.117809 8.24053 -0.280926 2.0902 0.779334 0.876055C1.13221 0.481087 1.63042 0.237914 2.16583 0.199319C5.01018 -0.0992403 13.7981 -0.059432 14.8074 0.29884C15.0913 0.388742 15.3506 0.540192 15.566 0.741841C15.7814 0.943491 15.9473 1.19011 16.0512 1.46322C16.6527 2.98588 16.673 8.51918 15.9696 9.98212C15.783 10.3629 15.4706 10.6714 15.0827 10.8579C14.0224 11.3754 3.10375 11.3655 1.69687 10.9176V10.9176ZM6.21317 8.03154L11.3106 5.44402L6.21317 2.8366V8.03154Z" fill="#111111"/>
</svg>
