<svg width="80" height="80" viewBox="0 0 80 80" fill="none" xmlns="http://www.w3.org/2000/svg">
<path d="M53.8739 9.80285C59.2095 4.44525 67.0156 4.33364 71.3392 8.6718C75.6701 13.0174 75.5511 20.8752 70.2118 26.2328L61.1927 35.2849C60.6701 35.8094 60.3774 36.5199 60.3788 37.2602C60.3802 38.0005 60.6756 38.71 61.2001 39.2324C61.7246 39.7549 62.4352 40.0477 63.1755 40.0463C63.9158 40.0449 64.6253 39.7495 65.1478 39.225L74.1669 30.1729C81.2736 23.0294 82.1666 11.6371 75.2943 4.73173C68.4109 -2.18106 57.0366 -1.27696 49.9188 5.86278L31.8843 23.9707C24.7702 31.1068 23.8772 42.5065 30.7569 49.4082C31.0119 49.6828 31.3195 49.9032 31.6615 50.0564C32.0035 50.2095 32.3729 50.2922 32.7476 50.2995C33.1222 50.3068 33.4945 50.2386 33.8423 50.0989C34.19 49.9592 34.506 49.7509 34.7715 49.4865C35.037 49.222 35.2465 48.9068 35.3875 48.5596C35.5285 48.2124 35.5981 47.8404 35.5922 47.4657C35.5863 47.0911 35.505 46.7214 35.3532 46.3789C35.2013 46.0363 34.982 45.7278 34.7083 45.4718C30.3811 41.1225 30.4964 33.2684 35.8357 27.9108L53.8739 9.80285Z" fill="black"/>
<path d="M49.249 30.5859C48.726 30.0615 48.0161 29.7662 47.2754 29.7652C46.5347 29.7642 45.8239 30.0574 45.2995 30.5804C44.775 31.1033 44.4797 31.8132 44.4787 32.5539C44.4776 33.2945 44.7709 34.0053 45.2939 34.5297C49.6248 38.8716 49.5058 46.7294 44.1665 52.0907L26.1246 70.1912C20.789 75.5488 12.9828 75.6605 8.65933 71.3223C4.33209 66.9767 4.44744 59.1189 9.78672 53.7613L18.8058 44.7092C19.3135 44.1822 19.5938 43.4769 19.5864 42.7452C19.579 42.0136 19.2846 41.3141 18.7664 40.7974C18.2483 40.2808 17.5479 39.9883 16.8162 39.983C16.0845 39.9777 15.38 40.26 14.8544 40.7691L5.83528 49.8212C-1.27508 56.9647 -2.16806 68.3607 4.71161 75.2698C11.595 82.1789 22.9693 81.2785 30.0834 74.1388L48.1216 56.0308C55.2283 48.8911 56.1213 37.495 49.249 30.5934V30.5859Z" fill="black"/>
</svg>
