<svg width="80" height="80" viewBox="0 0 80 80" fill="none" xmlns="http://www.w3.org/2000/svg">
<mask id="mask0_269_43" style="mask-type:luminance" maskUnits="userSpaceOnUse" x="0" y="0" width="80" height="80">
<path d="M0 0H80V80H0V0Z" fill="white"/>
</mask>
<g mask="url(#mask0_269_43)">
<path d="M34.3149 63.037L34.315 63.0369C28.9124 45.1048 34.7636 34.7995 34.7636 21.5867C34.7636 12.3355 30.3588 2.34376 21.1075 2.34376C11.8564 2.34376 5.33301 12.7808 5.33301 22.032C5.33301 46.5514 13.7747 68.2564 16.2686 72.428C18.0072 75.5461 21.3364 77.6562 25.16 77.6562C30.7796 77.6562 35.335 73.1008 35.335 67.4813C35.335 65.8875 34.968 64.3798 34.3149 63.037Z" stroke="black" stroke-width="4" stroke-miterlimit="10" stroke-linejoin="round"/>
<path d="M26.7167 21.3953C26.7167 21.3953 18.351 19.1198 12.5956 24.5407" stroke="black" stroke-width="4" stroke-miterlimit="10" stroke-linecap="round" stroke-linejoin="round"/>
<path d="M25.213 66.8228C26.439 66.8228 27.6135 65.7448 27.5568 64.4791C27.4999 63.2092 26.5269 62.1353 25.213 62.1353C23.9871 62.1353 22.8126 63.2133 22.8693 64.4791C22.9262 65.7489 23.8991 66.8228 25.213 66.8228Z" fill="black"/>
<path d="M18.9629 58.2812C20.1888 58.2812 21.3634 57.2033 21.3067 55.9375C21.2498 54.6677 20.2768 53.5938 18.9629 53.5938C17.737 53.5938 16.5624 54.6717 16.6192 55.9375C16.676 57.2073 17.649 58.2812 18.9629 58.2812Z" fill="black"/>
<path d="M45.6851 63.037L45.6849 63.0369C51.0876 45.1048 45.2363 34.7995 45.2363 21.5867C45.2363 12.3355 49.6412 2.34376 58.8924 2.34376C68.1435 2.34376 74.6669 12.7808 74.6669 22.032C74.6669 46.5514 66.2252 68.2564 63.7313 72.428C61.9927 75.5461 58.6635 77.6562 54.8399 77.6562C49.2204 77.6562 44.6649 73.1008 44.6649 67.4813C44.6649 65.8875 45.0319 64.3798 45.6851 63.037Z" stroke="black" stroke-width="4" stroke-miterlimit="10" stroke-linejoin="round"/>
<path d="M53.2831 21.3953C53.2831 21.3953 61.6487 19.1198 67.4042 24.5407" stroke="black" stroke-width="4" stroke-miterlimit="10" stroke-linecap="round" stroke-linejoin="round"/>
<path d="M54.7869 66.8228C56.0128 66.8228 57.1874 65.7448 57.1306 64.4791C57.0738 63.2092 56.1008 62.1353 54.7869 62.1353C53.5609 62.1353 52.3864 63.2133 52.4431 64.4791C52.5 65.7489 53.473 66.8228 54.7869 66.8228Z" fill="black"/>
<path d="M61.0369 58.2812C62.2628 58.2812 63.4374 57.2033 63.3806 55.9375C63.3238 54.6677 62.3508 53.5938 61.0369 53.5938C59.8109 53.5938 58.6364 54.6717 58.6931 55.9375C58.75 57.2073 59.723 58.2812 61.0369 58.2812Z" fill="black"/>
</g>
</svg>
